<?xml version="1.0" encoding="UTF-8" standalone="no"?>
<!-- Created with Inkscape (http://www.inkscape.org/) -->

<svg
   xmlns:dc="http://purl.org/dc/elements/1.1/"
   xmlns:cc="http://creativecommons.org/ns#"
   xmlns:rdf="http://www.w3.org/1999/02/22-rdf-syntax-ns#"
   xmlns:svg="http://www.w3.org/2000/svg"
   xmlns="http://www.w3.org/2000/svg"
   xmlns:sodipodi="http://sodipodi.sourceforge.net/DTD/sodipodi-0.dtd"
   xmlns:inkscape="http://www.inkscape.org/namespaces/inkscape"
   width="210mm"
   height="297mm"
   viewBox="0 0 210 297"
   version="1.1"
   id="svg8"
   inkscape:version="0.92.2 5c3e80d, 2017-08-06"
   sodipodi:docname="atom_brazil.svg">
  <defs
     id="defs2" />
  <sodipodi:namedview
     id="base"
     pagecolor="#ffffff"
     bordercolor="#666666"
     borderopacity="1.0"
     inkscape:pageopacity="0.0"
     inkscape:pageshadow="2"
     inkscape:zoom="1"
     inkscape:cx="1381.455"
     inkscape:cy="538.81931"
     inkscape:document-units="mm"
     inkscape:current-layer="layer1"
     showgrid="false"
     inkscape:snap-global="true"
     inkscape:snap-bbox="true"
     inkscape:window-width="1440"
     inkscape:window-height="810"
     inkscape:window-x="0"
     inkscape:window-y="1"
     inkscape:window-maximized="1" />
  <metadata
     id="metadata5">
    <rdf:RDF>
      <cc:Work
         rdf:about="">
        <dc:format>image/svg+xml</dc:format>
        <dc:type
           rdf:resource="http://purl.org/dc/dcmitype/StillImage" />
        <dc:title></dc:title>
      </cc:Work>
    </rdf:RDF>
  </metadata>
  <g
     inkscape:label="Layer 1"
     inkscape:groupmode="layer"
     id="layer1">
    <ellipse
       style="fill:none;stroke-width:0.26458332;stroke:#000000;stroke-opacity:1"
       id="path3732"
       cx="142.66425"
       cy="70.663345"
       rx="64.078773"
       ry="25.63151" />
    <ellipse
       ry="25.63151"
       rx="64.078773"
       cy="-145.14471"
       cx="73.350517"
       id="ellipse3738"
       style="fill:none;fill-opacity:1;stroke-width:0.26458332;stroke:#000000;stroke-opacity:1"
       transform="rotate(90)" />
    <path
       style="fill:none;fill-opacity:1;stroke-width:0.26458332;stroke:#000000;stroke-opacity:1"
       d="M 190.45525,118.66106 A 64.078773,25.63151 45 0 1 127.02051,91.47474 64.078773,25.63151 45 0 1 99.834185,28.039992 64.078773,25.63151 45 0 1 163.26893,55.226314 64.078773,25.63151 45 0 1 190.45525,118.66106 Z"
       id="ellipse3746"
       inkscape:connector-curvature="0" />
    <ellipse
       ry="25.63151"
       rx="64.078773"
       cy="-154.49948"
       cx="-50.766163"
       id="ellipse3748"
       style="fill:none;fill-opacity:1;stroke-width:0.26458332;stroke:#000000;stroke-opacity:1"
       transform="rotate(135)" />
    <ellipse
       style="fill:none;fill-opacity:0.81901867;stroke-width:0.26458332;stroke:#000000;stroke-opacity:1"
       id="path3766"
       cx="143.84677"
       cy="71.01664"
       rx="9.2115602"
       ry="8.7729139" />
    <path
       style="fill:none;stroke:#000000;stroke-width:0.26458332;stroke-opacity:1"
       d="m 76.069255,270.27869 c 0,-0.19865 0.219871,-0.64514 0.488603,-0.99218 0.622883,-0.80441 0.475353,-2.50566 -0.251,-2.89439 -0.63392,-0.33927 -1.295937,-1.61254 -1.295937,-2.49252 0,-0.7816 -0.790363,-1.19721 -2.276723,-1.19721 -1.165482,0 -2.95475,-0.90166 -3.302931,-1.66443 -0.385945,-0.8455 -1.866128,-1.72481 -3.31129,-1.9671 -0.689226,-0.11555 -1.29355,-0.33133 -1.342945,-0.47952 -0.0494,-0.14819 0.625676,-1.07546 1.500163,-2.06059 0.915977,-1.03188 1.589977,-2.03718 1.589977,-2.37153 0,-0.86357 1.730449,-3.21425 2.783728,-3.78148 0.706073,-0.38024 0.920438,-0.66441 0.920438,-1.22016 0,-0.67027 0.09968,-0.73769 1.332532,-0.90123 0.883049,-0.11714 1.418444,-0.33729 1.587219,-0.65266 0.140079,-0.26173 0.474869,-0.54577 0.743982,-0.63118 0.686922,-0.21802 1.098767,-1.2688 1.098767,-2.8034 v -1.31047 h -0.897734 c -0.57454,0 -0.955551,-0.15067 -1.058333,-0.41852 -0.08833,-0.23018 -0.1606,-1.77271 -0.1606,-3.42784 v -3.00933 l -1.1127,0.39258 c -1.700381,0.59993 -1.861039,0.43055 -1.647465,-1.7369 0.174094,-1.76675 0.156438,-1.85416 -0.374549,-1.85416 -0.306488,0 -0.752284,-0.29765 -0.990658,-0.66146 -0.238371,-0.3638 -0.657836,-0.66145 -0.93214,-0.66145 -0.274305,0 -0.498737,-0.11907 -0.498737,-0.26459 0,-0.15956 -1.100752,-0.26458 -2.773085,-0.26458 -2.720697,0 -2.776151,-0.0122 -2.935454,-0.64694 -0.0893,-0.35582 -0.02548,-1.27855 0.141809,-2.05052 0.205142,-0.94658 0.244626,-2.75492 0.121269,-5.55394 -0.170992,-3.87979 -0.147881,-4.20974 0.354481,-5.06118 0.505169,-0.8562 0.508243,-0.9032 0.05127,-0.7837 -0.399373,0.10444 -0.564335,-0.14918 -0.924341,-1.42111 -0.302069,-1.06723 -0.717793,-1.8112 -1.338122,-2.39464 -0.512051,-0.48161 -0.901658,-1.1088 -0.903962,-1.45521 -0.0075,-1.12177 -0.293124,-1.24629 -3.042303,-1.32614 l -2.630943,-0.0764 -0.312912,-1.32292 c -0.172104,-0.7276 -0.472289,-1.72025 -0.667081,-2.20588 -0.328131,-0.81804 -0.310401,-0.91842 0.241144,-1.36532 0.776055,-0.62882 0.820976,-2.01006 0.07309,-2.24743 -0.287218,-0.0912 -0.674172,-0.47489 -0.859896,-0.85273 -0.283699,-0.57716 -0.802904,-0.82307 -3.248093,-1.53838 -7.155087,-2.09313 -10.880248,-4.14114 -12.603221,-6.92896 -0.502147,-0.81249 -0.549291,-1.16424 -0.405667,-3.02672 l 0.16251,-2.10738 -1.050118,-0.47015 c -0.577568,-0.25859 -0.961351,-0.56502 -0.852856,-0.68097 0.108495,-0.11595 -0.306385,0.10286 -0.921957,0.48624 -1.218583,0.75894 -2.138386,0.88292 -2.717706,0.36633 -0.316063,-0.28184 -0.318487,-0.26156 -0.0164,0.13725 0.298494,0.39407 0.292383,0.54034 -0.03869,0.92605 -0.216246,0.25193 -0.467066,0.66641 -0.557379,0.92107 -0.09031,0.25466 -0.409012,0.46302 -0.708223,0.46302 -0.336836,0 -0.639795,0.25191 -0.795505,0.66146 -0.176599,0.46449 -0.450404,0.66146 -0.919494,0.66146 -0.536152,0 -0.668007,0.13056 -0.668007,0.66146 v 0.66146 h -4.630209 -4.630208 v -2.47685 -2.47686 l -0.640562,0.12246 c -0.352309,0.0674 -0.908845,0.40802 -1.236745,0.75706 -0.496884,0.52891 -0.852913,0.6346 -2.137563,0.6346 -1.536255,0 -1.54138,-0.003 -1.54138,-0.79375 0,-0.71829 -0.08174,-0.79413 -0.859895,-0.7978 -1.059669,-0.005 -1.144771,-0.0621 -2.6695586,-1.79072 -0.8693447,-0.98556 -1.2330454,-1.62666 -1.2330454,-2.1735 0,-0.50482 -0.184749,-0.87448 -0.5291667,-1.05881 -0.468755,-0.25087 -0.529167,-0.55399 -0.529167,-2.65514 0,-2.42537 0.09709,-2.6218 1.0451537,-2.11441 0.3439047,0.18405 0.4780297,0.16518 0.4700917,-0.0661 -0.0061,-0.17802 0.0076,-1.29766 0.03057,-2.48808 0.03906,-2.02844 0.07908,-2.16973 0.6369936,-2.24896 0.4948827,-0.0703 0.6090367,-0.27425 0.6766707,-1.20903 0.07575,-1.04691 0.134519,-1.12448 0.851975,-1.12448 0.549442,0 0.939047,-0.22781 1.357462,-0.79375 0.47651,-0.64451 0.779681,-0.79375 1.612502,-0.79375 0.811376,0 1.163125,-0.16337 1.683643,-0.78197 0.591142,-0.70253 0.837967,-0.78989 2.429671,-0.85989 l 1.771685,-0.0779 0.965004,-2.81037 c 0.825013,-2.40268 0.933308,-2.98004 0.746512,-3.97991 -0.120171,-0.64325 -0.303427,-2.23608 -0.407236,-3.53963 -0.153728,-1.93039 -0.304371,-2.50884 -0.812014,-3.11799 -0.447978,-0.53756 -0.623271,-1.07706 -0.623271,-1.91823 v -1.17033 h 1.455209 c 1.278819,0 1.455208,-0.0641 1.455208,-0.52916 0,-0.41158 -0.176389,-0.52917 -0.79375,-0.52917 -0.727889,0 -0.79375,-0.0754 -0.79375,-0.90882 0,-0.49985 0.116116,-1.21422 0.258035,-1.5875 0.250675,-0.65932 0.32614,-0.67868 2.645832,-0.67868 1.415478,0 2.3878,-0.10774 2.3878,-0.26458 0,-0.35882 0.881209,-0.33588 1.249615,0.0325 0.219765,0.21976 0.508596,0.14653 1.109445,-0.28132 1.00211,-0.71356 1.345108,-0.53225 1.345108,0.71105 0,0.56027 0.247949,1.32441 0.595312,1.83466 l 0.595313,0.87446 2.725368,0.002 c 2.431056,0.002 2.95093,-0.0873 4.814126,-0.82359 1.804687,-0.71315 2.099733,-0.92006 2.169426,-1.52136 0.07082,-0.61104 0.214419,-0.70571 1.176946,-0.77593 0.923725,-0.0674 1.115768,-0.18192 1.220082,-0.72761 0.115832,-0.60593 0.05053,-0.64761 -1.014519,-0.64761 -0.626078,0 -1.208135,-0.11296 -1.293463,-0.25103 -0.08533,-0.13806 -0.229719,-1.21808 -0.320865,-2.40005 -0.158635,-2.05713 -0.209075,-2.19064 -1.179678,-3.12241 -0.653509,-0.62735 -0.939237,-1.09087 -0.803763,-1.30388 0.275503,-0.43317 3.225313,0.52933 3.897034,1.27157 0.322877,0.35678 0.812357,0.51413 1.599286,0.51413 0.623702,0 1.218094,0.13606 1.320868,0.30236 0.119446,0.19327 0.319051,0.0501 0.553233,-0.39687 0.302263,-0.5769 0.550056,-0.69924 1.416249,-0.69924 0.697105,0 1.22769,-0.17781 1.579049,-0.52916 0.293177,-0.29318 0.881943,-0.52917 1.320215,-0.52917 0.666202,0 0.944917,-0.23175 1.766025,-1.46842 0.911794,-1.37326 1.036283,-1.46328 1.92093,-1.38907 0.869233,0.0729 0.953064,0.15428 1.033624,1.00309 0.04822,0.50806 0.221618,1.00652 0.385329,1.1077 0.220218,0.1361 0.215707,1.25907 -0.01733,4.31638 l -0.314987,4.13241 0.987991,0.9776 c 0.543396,0.53768 1.108295,1.19712 1.255332,1.46542 0.230804,0.42115 0.602467,0.48622 2.719681,0.47617 2.060432,-0.01 2.562524,-0.0983 3.141781,-0.55397 0.546947,-0.43023 1.078513,-0.54306 2.571986,-0.54592 2.588633,-0.005 3.072256,-0.16519 3.077223,-1.01944 0.0021,-0.38321 0.100036,-0.84797 0.21735,-1.03281 0.282937,-0.44578 5.729522,-0.48697 8.763252,-0.0663 2.66236,0.36921 2.2958,0.67362 4.53339,-3.76485 0.862,-1.70987 1.65566,-3.10703 1.76368,-3.1048 0.57887,0.0119 0.8914,0.70623 1.75822,3.90595 0.52344,1.93222 0.95172,3.56933 0.95172,3.63802 0,0.0687 0.47456,0.12489 1.05458,0.12489 0.93735,0 1.13249,0.11773 1.75545,1.05909 0.7006,1.05868 0.70069,1.05954 0.24461,2.25379 -0.25094,0.65708 -0.63268,1.37112 -0.84831,1.58674 -0.21562,0.21563 -0.27773,0.39205 -0.13801,0.39205 0.13972,0 0.33222,0.41672 0.42776,0.92604 0.14821,0.78998 0.27994,0.92604 0.89662,0.92604 0.39759,0 0.97067,0.17356 1.27351,0.38568 0.30285,0.21212 1.32862,0.46538 2.27949,0.5628 1.89006,0.19364 1.97243,0.32018 1.0509,1.61436 -0.66804,0.93817 -0.77052,2.2482 -0.21213,2.71162 0.57191,0.47464 1.31574,-0.11967 1.76073,-1.4068 l 0.37667,-1.08953 2.40881,-0.0756 2.408819,-0.0756 0.68955,0.90404 c 0.4779,0.62657 0.99066,0.96054 1.67059,1.08809 0.53958,0.10123 1.61818,0.59161 2.3969,1.08975 0.77872,0.49814 1.58504,0.90571 1.79183,0.90571 0.2068,0 0.87797,0.59531 1.4915,1.32291 1.06031,1.25747 1.86384,1.63996 2.2233,1.05834 0.26227,-0.42436 1.22789,-0.31038 3.27803,0.38691 1.05352,0.35833 2.62219,0.79054 3.48594,0.96047 1.30838,0.25741 1.57556,0.40256 1.60113,0.86985 0.0272,0.49732 0.0452,0.50434 0.15863,0.0619 0.11551,-0.4506 0.32436,-0.48523 2.15212,-0.35687 2.24554,0.1577 4.14305,0.81214 6.20878,2.14139 2.02036,1.30006 4.20355,3.35222 4.03461,3.79248 -0.0788,0.2054 -0.0266,0.30134 0.11601,0.21319 0.14264,-0.0882 0.82588,0.23308 1.51833,0.71386 1.183,0.82137 1.42637,0.88212 4.03188,1.00643 l 2.77289,0.13229 0.21954,1.32292 c 0.12075,0.7276 0.33146,1.43602 0.46825,1.57427 0.1368,0.13824 0.24872,2.17753 0.24872,4.53175 0,4.99011 -0.28039,6.10766 -1.59858,6.3713 -0.65127,0.13025 -0.72229,0.21066 -0.40191,0.45502 0.33831,0.25806 0.31634,0.46288 -0.16817,1.56822 -0.43574,0.99409 -0.72168,1.30428 -1.31098,1.42213 -0.49422,0.0988 -0.75369,0.31503 -0.75369,0.62794 0,0.66336 -0.71278,1.30874 -1.44542,1.30874 -0.42687,0 -0.6623,0.19293 -0.77283,0.6333 -0.15747,0.6274 -2.42712,3.07087 -2.85243,3.07087 -0.12154,0 -0.22099,0.29346 -0.22099,0.65215 0,0.38136 -0.21972,0.76974 -0.52916,0.93535 -0.29104,0.15576 -0.52918,0.49549 -0.52918,0.75496 0,0.90608 -1.6543,2.68647 -2.91043,3.13225 l -1.19062,0.42253 0.0843,4.35715 c 0.0796,4.11476 0.0536,4.38983 -0.46759,4.94464 -0.58855,0.62648 -1.32588,3.34872 -1.52783,5.64082 -0.13251,1.50394 -0.66275,2.06467 -1.75661,1.85757 -0.53715,-0.1017 -0.56921,0.005 -0.63608,2.11556 -0.0965,3.0444 -0.4555,4.42992 -1.45717,5.62302 -0.46871,0.55828 -0.97693,1.5288 -1.12937,2.15671 -0.24988,1.02922 -0.36721,1.15469 -1.19137,1.27395 -0.89257,0.12917 -0.91731,0.16605 -1.04648,1.56059 -0.14332,1.54742 -0.29271,1.70805 -1.98438,2.1335 -0.74815,0.18816 -1.19043,0.50005 -1.50905,1.06417 l -0.45072,0.79799 h -3.55589 c -2.76841,0 -3.58671,0.0804 -3.69511,0.36283 -0.20255,0.52783 -1.53498,0.8082 -1.80647,0.38012 -0.16766,-0.26436 -0.22044,-0.26798 -0.22354,-0.0154 -0.002,0.19019 -0.34135,0.33073 -0.7978,0.33073 -0.5349,0 -0.79376,0.13157 -0.79376,0.40343 0,0.47944 -0.71836,0.77795 -2.50364,1.04036 -2.130169,0.31312 -3.261449,0.87505 -3.445109,1.71126 -0.19023,0.86612 -2.08208,2.80286 -2.49101,2.55013 -0.17046,-0.10535 -0.22782,-0.0263 -0.14238,0.19639 0.0916,0.23865 -0.14834,0.4935 -0.66672,0.70822 -1.40902,0.58364 -1.86365,2.0998 -1.86365,6.21513 0,3.23407 -0.0424,3.53517 -0.56349,4.00126 -0.30991,0.27722 -0.84719,0.95052 -1.19394,1.49622 -0.34675,0.5457 -0.7897,0.99219 -0.98432,0.99219 -0.19463,0 -0.677,0.76031 -1.07194,1.68957 -0.39495,0.92927 -1.01847,1.97106 -1.38562,2.3151 -0.36714,0.34405 -1.07788,1.35847 -1.57942,2.25428 -0.77022,1.37573 -1.19033,1.79418 -2.70427,2.69359 -1.81819,1.08017 -2.15935,1.52022 -2.68129,3.45859 -0.16034,0.59544 -0.40185,1.08262 -0.5367,1.08262 -0.13485,0 -0.65199,0.35718 -1.14921,0.79375 -0.96575,0.84793 -2.553963,1.11692 -2.553963,0.43255 z"
       id="path4059"
       inkscape:connector-curvature="0" />
    <path
       style="fill:none;stroke:#000000;stroke-width:0.26458332;stroke-opacity:1"
       d="m 77.829411,269.70406 c 0.0858,-0.22366 0.49444,-0.58165 0.90802,-0.79552 0.50424,-0.26075 0.84126,-0.71513 1.02303,-1.37927 0.45794,-1.67325 1.2057,-2.58403 2.96782,-3.61482 1.47307,-0.86171 1.80545,-1.2096 2.57647,-2.6967 0.48688,-0.93905 1.11824,-1.83207 1.40304,-1.98449 1.22128,-0.65361 2.1731,-4.23229 1.64664,-6.19112 -0.0931,-0.34635 -1.36197,-1.21129 -3.63441,-2.47743 l -3.49139,-1.9453 -2.64784,-0.13698 c -1.54655,-0.08 -3.444836,-0.003 -4.564063,0.18622 -1.755759,0.29615 -1.916223,0.37633 -1.916223,0.95745 0,0.45234 -0.303919,0.82609 -1.059707,1.30319 -1.287047,0.81248 -2.64446,2.61686 -2.64446,3.51522 0,0.42217 -0.530383,1.26268 -1.477581,2.34156 l -1.477582,1.68298 h 0.896615 c 1.076143,0 3.255195,1.30201 3.507036,2.0955 0.240387,0.75739 1.058135,1.14903 2.853947,1.36682 1.888217,0.229 2.841315,0.8088 2.841315,1.72848 0,0.86674 0.747157,2.14364 1.345943,2.30022 0.68478,0.17907 1.02115,3.04859 0.40976,3.49565 -0.542718,0.39685 -0.5536,0.655 -0.0276,0.655 0.22285,0 0.4754,-0.183 0.56123,-0.40666 z"
       id="path4057"
       inkscape:connector-curvature="0" />
    <path
       style="fill:none;stroke:#000000;stroke-width:0.26458332;stroke-opacity:1"
       d="m 90.092171,254.35919 c 0,-0.22313 0.41672,-0.82241 0.92604,-1.33173 l 0.92604,-0.92605 v -3.67973 c 0,-2.16775 0.10872,-3.74692 0.26459,-3.84325 0.59187,-0.3658 0.21041,-0.60898 -0.59357,-0.3784 -0.47198,0.13536 -1.60411,0.24611 -2.51583,0.24611 -1.42198,0 -1.81348,0.11286 -2.75343,0.79375 -1.31859,0.95519 -2.67037,1.04052 -4.19134,0.26458 -1.43301,-0.73107 -5.29113,-0.77928 -5.29266,-0.0661 -5.3e-4,0.25466 -0.236914,0.84997 -0.525273,1.32291 l -0.524288,0.8599 h 2.949431 c 2.72755,0 3.04074,0.0537 4.16329,0.71392 1.79608,1.05635 3.71389,2.12628 4.98664,2.78203 1.14053,0.58763 1.64593,1.52276 1.64972,3.05248 7.9e-4,0.32743 0.12054,0.59532 0.26606,0.59532 0.14552,0 0.26458,-0.18257 0.26458,-0.4057 z"
       id="path4055"
       inkscape:connector-curvature="0" />
    <path
       style="fill:none;stroke:#000000;stroke-width:0.26458332;stroke-opacity:1"
       d="m 85.413211,244.66873 c 0.31785,-0.16861 0.7335,-0.5258 0.92365,-0.79375 0.27417,-0.38634 0.6959,-0.48718 2.0375,-0.48718 2.60555,0 6.12833,-0.82217 5.79987,-1.35362 -0.0795,-0.12863 -0.52447,-0.2357 -0.98882,-0.23793 -0.46436,-0.002 -0.97755,-0.0915 -1.14044,-0.19843 -0.16288,-0.10692 -1.03641,-1.74997 -1.94118,-3.65122 l -1.64504,-3.45684 -3.08589,-1.34972 c -1.69725,-0.74235 -3.58006,-1.38943 -4.18404,-1.43796 -1.03464,-0.0831 -1.24397,0.0342 -3.61965,2.02843 -1.386823,1.16417 -2.586388,2.26765 -2.665697,2.45218 -0.07931,0.18453 -0.06974,1.63683 0.02125,3.22734 l 0.16546,2.89183 0.820258,0.0799 c 0.674058,0.0657 0.835184,0.20964 0.903979,0.80756 l 0.0837,0.7276 h 2.3048 c 1.54842,0 2.47854,0.12169 2.83418,0.37079 0.92051,0.64475 2.53532,0.82697 3.37608,0.38097 z"
       id="path4051"
       inkscape:connector-curvature="0" />
    <path
       style="fill:none;stroke:#000000;stroke-width:0.26458332;stroke-opacity:1"
       d="m 96.187741,240.59887 c 0.34736,-0.36974 0.75506,-1.05355 0.90601,-1.51957 0.33212,-1.02533 1.50429,-1.64384 3.822969,-2.01725 1.8196,-0.29304 2.14004,-0.43343 2.14004,-0.93759 0,-0.40121 0.56811,-0.67337 1.41071,-0.67583 0.3627,-0.001 0.74396,-0.30085 1.0367,-0.81519 0.58916,-1.03514 0.58257,-1.36243 -0.0352,-1.74823 -0.40921,-0.25555 -0.79152,-0.1724 -2.14043,0.46553 -1.72614,0.81633 -3.12565,0.99197 -3.658469,0.45915 -0.19628,-0.19628 -0.3175,-1.16156 -0.3175,-2.52825 0,-1.96329 -0.10862,-2.46084 -0.97038,-4.445 l -0.97038,-2.23425 h -2.57135 c -2.55966,0 -2.57855,-0.005 -4.15728,-1.05905 -0.99365,-0.66353 -2.0278,-1.11961 -2.76909,-1.22121 -1.15887,-0.15885 -1.18652,-0.14526 -1.34801,0.66217 -0.0909,0.45457 -0.33205,0.82434 -0.53757,0.82434 -0.20499,0 -0.80328,0.47659 -1.32953,1.05909 -0.8549,0.94628 -0.95683,1.21404 -0.95683,2.51355 0,1.51227 -0.20717,1.88021 -1.59324,2.82963 l -0.65572,0.44914 0.66146,0.0314 c 0.85963,0.0408 7.19795,3.18298 7.46459,3.70053 0.11246,0.21828 0.68849,1.46844 1.28007,2.77813 1.64321,3.63789 1.59892,3.57011 2.3464,3.59047 0.37559,0.0102 0.92102,0.12092 1.21206,0.24598 0.83717,0.35975 1.05785,0.30774 1.72995,-0.40768 z"
       id="path4049"
       inkscape:connector-curvature="0" />
    <path
       style="fill:none;stroke:#000000;stroke-width:0.26458332;stroke-opacity:1"
       d="m 73.404612,235.58923 c 0.640927,-0.22613 2.240434,-1.37104 3.803579,-2.72255 1.48363,-1.28278 3.17377,-2.67275 3.75586,-3.08883 1.51142,-1.08039 1.71979,-1.42086 1.71979,-2.81022 0,-1.04615 0.16384,-1.44357 1.05828,-2.56694 0.58206,-0.73103 1.24526,-1.4009 1.47377,-1.48858 0.86992,-0.33383 0.14646,-1.25927 -2.79664,-3.57744 -2.72105,-2.14327 -3.15929,-2.39708 -4.14554,-2.40091 -1.702071,-0.007 -1.939873,-0.18 -1.939873,-1.41438 0,-1.06098 -0.01056,-1.07382 -0.411877,-0.50086 -0.348189,0.49711 -0.658574,0.58804 -2.007269,0.58804 -1.337564,0 -1.773412,-0.12537 -2.696975,-0.77576 -0.888537,-0.62572 -1.408615,-0.78534 -2.689087,-0.82534 -2.229286,-0.0696 -2.128049,-0.11001 -3.013287,1.20167 -1.498724,2.22068 -1.475581,2.11056 -1.668652,7.94005 -0.101212,3.05594 -0.220274,5.91344 -0.264584,6.35 l -0.08056,0.79375 2.642949,0.0765 c 1.453621,0.0421 2.757355,0.1909 2.897187,0.33073 0.13983,0.13983 0.464363,0.25424 0.721181,0.25424 0.256817,0 0.593627,0.23672 0.748469,0.52604 0.154842,0.28933 0.575749,0.59989 0.935349,0.69014 0.616252,0.15467 0.653823,0.26888 0.653823,1.9875 0,1.00287 0.04456,1.8234 0.09902,1.8234 0.05446,0 0.596752,-0.1756 1.205082,-0.39024 z"
       id="path4047"
       inkscape:connector-curvature="0" />
    <path
       style="fill:none;stroke:#000000;stroke-width:0.26458332;stroke-opacity:1"
       d="m 106.85663,235.05343 c 0.12426,-0.32383 0.77472,-0.39762 3.53405,-0.40093 1.85996,-0.002 3.50356,-0.0915 3.65244,-0.19843 0.14888,-0.10692 0.47905,-0.52181 0.7337,-0.92199 0.25467,-0.40019 0.60911,-0.72827 0.78765,-0.72908 0.17855,-8e-4 0.77112,-0.12548 1.31682,-0.27702 0.92084,-0.25573 0.99219,-0.3468 0.99219,-1.26636 0,-0.82465 -0.19948,-1.18658 -1.18953,-2.15824 -0.71131,-0.6981 -1.27817,-1.06594 -1.41001,-0.91498 -0.12126,0.13885 -0.66115,0.80488 -1.19972,1.48007 -1.25255,1.57029 -3.05118,2.37909 -5.67665,2.55266 -1.36819,0.0905 -1.85275,0.21047 -1.65365,0.40956 0.39447,0.39447 0.35067,1.12685 -0.12206,2.041 -0.22201,0.42934 -0.2943,0.78062 -0.1606,0.78062 0.13369,0 0.31161,-0.1786 0.39537,-0.39688 z"
       id="path4045"
       inkscape:connector-curvature="0" />
    <path
       style="fill:none;stroke:#000000;stroke-width:0.26458332;stroke-opacity:1"
       d="m 103.47201,232.14301 c 1.39997,-0.63798 2.4182,-0.92604 3.27338,-0.92604 1.73715,0 4.22453,-0.47114 5.2267,-0.98999 1.31502,-0.68084 2.81732,-2.83357 2.98316,-4.2747 0.13109,-1.13929 0.19409,-1.22283 0.97955,-1.29899 1.3958,-0.13532 2.19173,-1.87852 2.43937,-5.34257 0.15914,-2.22611 0.16836,-2.24982 0.90705,-2.33448 0.41046,-0.047 1.10267,0.0387 1.53825,0.19057 l 0.79198,0.27608 -0.65593,-0.77954 c -0.36077,-0.42874 -0.73865,-1.15612 -0.83974,-1.61638 -0.1662,-0.7567 -0.067,-0.94259 1.03591,-1.94089 0.67085,-0.60722 1.21972,-1.29498 1.21972,-1.52836 0,-0.23338 -0.76125,-1.09267 -1.69167,-1.90954 -1.57713,-1.38463 -1.76077,-1.4747 -2.712,-1.33008 -0.87833,0.13353 -1.2228,0.0173 -2.47551,-0.83489 -1.3213,-0.8989 -1.66218,-1.00378 -3.70418,-1.13968 -2.07777,-0.13829 -2.2554,-0.195 -2.33352,-0.74499 -0.0465,-0.32743 -0.19721,-0.59532 -0.3349,-0.59532 -0.1377,0 -0.9644,0.51957 -1.83711,1.1546 -1.26321,0.91916 -1.89205,1.19048 -3.08385,1.33055 -1.57817,0.18549 -1.8261,0.0896 -1.97882,-0.76536 -0.0541,-0.30254 -0.34108,-0.56442 -0.67021,-0.61149 -0.49358,-0.0706 -0.58753,0.0615 -0.65876,0.92604 -0.067,0.81345 -0.19816,1.02471 -0.6784,1.09292 -0.542439,0.077 -0.595309,0.2267 -0.595309,1.68518 0,1.34702 -0.14142,1.8367 -0.89251,3.09045 -0.66755,1.1143 -0.92757,1.90211 -1.03161,3.1255 -0.0765,0.89962 -0.20818,1.74744 -0.2926,1.88403 -0.0844,0.13659 -1.79308,0.33483 -3.79703,0.44052 l -3.64354,0.19216 -1.40961,1.27052 -1.40961,1.27051 1.14502,0.18405 c 0.62977,0.10123 1.86771,0.64904 2.75098,1.21736 1.60002,1.02949 1.61593,1.0333 4.31482,1.0333 h 2.70888 l 1.17528,2.53221 c 1.029699,2.21855 1.175279,2.75663 1.175279,4.34398 0,2.03154 0.15732,2.64881 0.67512,2.64881 0.19465,0 1.26834,-0.41672 2.38597,-0.92605 z"
       id="path4039"
       inkscape:connector-curvature="0" />
    <path
       style="fill:none;stroke:#000000;stroke-width:0.26458332;stroke-opacity:1"
       d="m 119.16333,228.93494 c 0.58523,-0.11704 0.82683,-0.31541 0.82683,-0.67885 0,-0.64662 0.39861,-1.39921 1.4087,-2.65972 0.68218,-0.85129 0.82006,-1.29722 0.98172,-3.175 0.10344,-1.20153 0.2615,-2.3632 0.35126,-2.58148 0.24094,-0.58597 -0.0997,-0.91432 -1.31716,-1.26965 -1.89371,-0.5527 -1.95369,-0.51319 -1.95369,1.28699 0,1.27071 -0.18956,2.01511 -0.91044,3.57537 -0.78655,1.70235 -1.0206,1.99256 -1.7198,2.1324 -1.16611,0.23322 -1.09889,1.2321 0.17038,2.53196 1.07756,1.10351 0.99484,1.07145 2.1622,0.83798 z"
       id="path4029"
       inkscape:connector-curvature="0" />
    <path
       style="fill:none;stroke:#000000;stroke-width:0.26458332;stroke-opacity:1"
       d="m 93.257191,217.19406 h 3.1469 l 0.18771,-1.50235 c 0.12353,-0.98871 0.49163,-2.00635 1.07669,-2.97656 0.48894,-0.81082 0.88929,-1.61783 0.88967,-1.79336 5.3e-4,-0.21271 -0.639,-0.34506 -1.91755,-0.39687 l -1.91823,-0.0777 -0.0778,-1.92205 c -0.0596,-1.47263 0.0103,-1.95588 0.29914,-2.06671 0.20733,-0.0796 1.35683,0.0412 2.55444,0.26841 1.19762,0.22718 2.2834,0.41306 2.41284,0.41306 0.129449,0 0.235359,-0.47625 0.235359,-1.05833 v -1.05834 h 1.05834 1.05833 v -3.175 c 0,-1.74625 -0.0613,-3.175 -0.1363,-3.175 -0.075,0 -0.7692,0.35719 -1.54276,0.79375 -1.248629,0.70469 -1.652109,0.79375 -3.595809,0.79375 -1.96224,0 -2.27277,-0.0702 -2.99327,-0.67643 l -0.8039,-0.67644 -0.899,0.87135 -0.899,0.87134 -1.24571,-0.65793 c -1.14242,-0.60337 -1.25668,-0.75374 -1.37801,-1.81344 l -0.13229,-1.15551 -0.5264,0.58492 c -0.28951,0.3217 -0.65325,1.19887 -0.80829,1.94926 -0.23626,1.14343 -0.86862,2.14262 -3.90538,6.17083 l -3.62347,4.80648 v 2.7685 2.7685 l 1.38906,1.06533 c 0.76399,0.58593 2.1624,1.65689 3.1076,2.37991 l 1.71853,1.31457 2.06084,-1.81895 2.06084,-1.81895 z"
       id="path4017"
       inkscape:connector-curvature="0" />
    <path
       style="fill:none;stroke:#000000;stroke-width:0.26458332;stroke-opacity:1"
       d="m 125.10651,216.17889 c 0.27833,-2.78894 0.68192,-4.34777 1.39037,-5.37004 l 0.7059,-1.01862 -0.11925,-4.35779 c -0.12572,-4.59398 -0.11439,-4.64255 1.08275,-4.64255 0.77584,0 2.58511,-1.74922 2.77109,-2.67912 0.093,-0.46507 0.40639,-1.01178 0.69639,-1.21491 0.67458,-0.47249 0.66854,-0.78798 -0.0193,-1.00628 -0.3006,-0.0954 -0.95544,-0.53248 -1.45521,-0.97128 -0.80113,-0.7034 -0.90866,-0.95002 -0.90866,-2.08401 0,-1.37463 0.36965,-1.79681 1.63626,-1.86881 0.39951,-0.0227 0.29047,-0.0918 -0.31333,-0.19844 -0.92393,-0.16323 -0.92623,-0.16719 -1.00683,-1.73263 -0.0869,-1.68838 -0.13562,-1.75644 -2.10265,-2.93772 l -1.12511,-0.67566 -1.64921,1.33443 c -0.90706,0.73394 -1.85367,1.33443 -2.10358,1.33443 -0.24991,0 -0.83711,-0.47625 -1.30488,-1.05833 -0.46778,-0.58209 -0.9455,-1.05834 -1.0616,-1.05834 -0.1161,0 -0.61791,0.35719 -1.11513,0.79375 l -0.90403,0.79375 h -3.48578 -3.48576 l 0.45626,0.77239 c 0.42554,0.72039 0.42682,0.81732 0.019,1.43971 -0.7505,1.14539 -4.13911,3.24172 -4.81861,2.98097 -0.19619,-0.0753 -0.63194,-0.61876 -0.96831,-1.20773 -0.84602,-1.4813 -1.68969,-1.46732 -2.98805,0.0495 -0.95038,1.11032 -0.9548,1.12625 -0.35134,1.26898 l 0.61112,0.14455 v 6.66869 6.66869 l 1.05835,-8e-4 c 0.8008,-5.3e-4 1.44462,-0.263 2.64584,-1.07835 0.87312,-0.59266 1.79362,-1.26365 2.04556,-1.4911 0.37262,-0.33641 0.533,-0.35133 0.8599,-0.08 0.22101,0.18342 0.40184,0.60039 0.40184,0.9266 0,0.50501 0.18232,0.61808 1.22756,0.76135 0.67516,0.0925 1.57385,0.16826 1.9971,0.16826 0.42732,0 1.41326,0.41179 2.21716,0.92604 1.09915,0.70311 1.73138,0.92604 2.62634,0.92604 1.06147,0 1.36525,0.16055 3.05432,1.61429 1.03159,0.88785 1.99657,1.92965 2.14441,2.3151 0.24625,0.64205 0.15611,0.80478 -1.07507,1.94062 -0.73912,0.68189 -1.34386,1.42569 -1.34386,1.65288 0,0.52295 1.79495,2.52719 2.49533,2.78628 1.05802,0.39139 1.40441,0.0512 1.56268,-1.53475 z"
       id="path4011"
       inkscape:connector-curvature="0" />
    <path
       style="fill:none;stroke:#000000;stroke-width:0.26458332;stroke-opacity:1"
       d="m 64.092922,215.54041 c 0.153692,-0.32742 0.730084,-1.1156 1.280869,-1.75152 l 1.001432,-1.15621 1.893277,0.12151 c 1.578406,0.10129 2.095423,0.26058 3.10875,0.95777 1.57769,1.08547 3.014102,1.13395 4.310084,0.14546 1.182797,-0.90217 1.704837,-0.69318 1.704837,0.6825 0,0.96136 0.0653,1.06664 0.66146,1.06664 h 0.66146 v -2.67697 -2.67697 l 1.52135,-1.98212 c 0.83675,-1.09017 1.69977,-2.23702 1.91784,-2.54855 0.21807,-0.31154 1.0331,-1.39711 1.81117,-2.41237 2.26966,-2.96155 2.42255,-3.38643 2.42255,-6.73224 0,-1.98248 0.16957,-3.63792 0.53171,-5.19106 0.29244,-1.2542 0.473,-2.37536 0.40124,-2.49147 -0.0718,-0.11611 -1.76955,-0.41186 -3.77286,-0.65722 -5.34746,-0.65596 -10.429671,-1.46124 -15.808689,-2.12516 -1.889284,-0.23166 -3.509788,-0.50658 -3.601122,-0.61093 -0.09133,-0.10436 -0.561613,-1.0827 -1.045067,-2.17411 -0.483457,-1.09141 -0.963192,-2.08436 -1.066078,-2.20657 -0.102888,-0.12221 -0.387741,0.41357 -0.633007,1.19062 -0.245269,0.77706 -0.57049,1.74025 -0.722715,2.14043 l -0.276773,0.7276 h -4.994984 -4.994983 v 3.2117 3.2117 l 2.315104,-0.12863 c 1.273307,-0.0707 2.463932,-0.0773 2.645833,-0.0147 0.485018,0.16715 0.4289,2.16548 -0.06615,2.35545 -0.661524,0.25385 -0.445119,0.62485 0.364479,0.62485 1.555766,0 1.527538,0.51111 -0.212135,3.84091 -0.884152,1.69229 -1.607552,3.28722 -1.607552,3.54428 0,0.25705 0.297656,0.60299 0.661458,0.76875 0.575987,0.26243 0.661458,0.47075 0.661458,1.61214 0,1.07838 -0.09381,1.34053 -0.529166,1.47871 -0.625483,0.19852 -0.651767,0.36779 -0.165455,1.0656 0.200041,0.28704 0.44863,1.02791 0.552421,1.64638 l 0.188714,1.12447 h 2.56966 c 2.838629,0 3.204659,0.16633 3.204659,1.45623 0,0.58864 0.258067,1.07135 0.911209,1.7044 0.59249,0.57426 1.026438,1.33277 1.240645,2.16857 0.367355,1.43334 0.544102,1.56132 0.953063,0.69007 z"
       id="path4001"
       inkscape:connector-curvature="0" />
    <path
       style="fill:none;stroke:#000000;stroke-width:0.26458332;stroke-opacity:1"
       d="m 98.636921,208.79354 c 0.0769,-0.40019 0.12052,-0.74247 0.097,-0.76063 -0.0235,-0.0182 -0.72739,-0.11602 -1.56414,-0.21748 l -1.52135,-0.18445 v 0.94508 0.94508 h 1.42436 c 1.34358,0 1.4323,-0.0413 1.56414,-0.7276 z"
       id="path3993"
       inkscape:connector-curvature="0" />
    <path
       style="fill:none;stroke:#000000;stroke-width:0.26458332;stroke-opacity:1"
       d="m 54.401473,198.1983 c 0.712177,-1.35264 1.294866,-2.5135 1.294866,-2.57969 0,-0.0662 -0.223994,-0.12034 -0.497763,-0.12034 -0.543105,0 -1.883487,-1.57539 -1.883487,-2.21373 0,-0.22993 0.306147,-0.44333 0.727604,-0.50718 0.400182,-0.0606 -0.366696,-0.12806 -1.704176,-0.14986 -1.337479,-0.0218 -2.489086,-0.13236 -2.559126,-0.24569 -0.07004,-0.11333 -0.212437,-1.77139 -0.316439,-3.68458 -0.179515,-3.30227 -0.21898,-3.48603 -0.778881,-3.62656 -0.324384,-0.0814 -1.150718,-0.8046 -1.836301,-1.60709 -0.976084,-1.14251 -1.411771,-1.45906 -2.008253,-1.45906 -0.515776,0 -2.043375,0.83297 -4.730961,2.57969 -2.183072,1.41883 -3.974209,2.65608 -3.980305,2.74944 -0.0061,0.0934 0.25681,0.23778 0.584232,0.32091 1.0315,0.2619 1.342002,1.08739 0.963909,2.56262 -0.699855,2.7307 0.926184,5.05771 4.870581,6.97026 2.843565,1.37878 9.334617,3.6137 10.200855,3.51223 0.197326,-0.0231 0.941467,-1.14873 1.653645,-2.50137 z"
       id="path3975"
       inkscape:connector-curvature="0" />
    <path
       style="fill:none;stroke:#000000;stroke-width:0.26458332;stroke-opacity:1"
       d="m 91.787631,198.80557 c 0.31749,-0.48455 0.66711,-0.66146 1.30723,-0.66146 0.58998,0 1.07567,0.21486 1.49523,0.66146 0.53269,0.56703 0.8546,0.66145 2.25494,0.66145 1.38962,0 1.90622,-0.14888 3.459609,-0.99704 l 1.82608,-0.99703 0.0782,-1.78109 0.0782,-1.78109 h -0.81414 c -1.25226,0 -1.25411,-0.6233 -0.006,-2.11366 0.76757,-0.91677 0.98108,-1.32592 0.69194,-1.32592 -0.62785,0 -2.173479,-3.29572 -2.395179,-5.10722 -0.21131,-1.72653 0.0575,-2.30111 1.076679,-2.30111 0.38279,0 0.62907,-0.15538 0.62907,-0.39688 0,-0.25561 -0.25898,-0.39827 -0.72761,-0.40081 -0.43317,-0.002 -1.132969,-0.3503 -1.729339,-0.8599 l -1.00173,-0.85595 -0.14762,-3.57188 c -0.14744,-3.56709 -0.14871,-3.57282 -0.94816,-4.27903 -0.49541,-0.43762 -0.96494,-0.64395 -1.23189,-0.54135 -0.33816,0.12999 -0.28874,0.19953 0.2287,0.32189 0.955,0.2258 0.9384,0.78701 -0.0834,2.82176 -0.89845,1.78906 -2.07039,4.62919 -2.43871,5.91006 -0.3414,1.18725 -1.10522,2.47452 -2.858,4.81662 -1.61896,2.16328 -1.77293,2.49522 -2.53665,5.46867 -0.80652,3.14007 -1.03946,5.32513 -0.5677,5.32513 0.13496,0 0.48714,-0.30735 0.78263,-0.683 0.89502,-1.13783 1.47178,-0.76538 1.56471,1.01042 0.0627,1.1989 0.19852,1.5965 0.65418,1.91566 0.76113,0.53311 0.85142,0.51592 1.35898,-0.2587 z"
       id="path3971"
       inkscape:connector-curvature="0" />
    <path
       style="fill:none;stroke:#000000;stroke-width:0.26458332;stroke-opacity:1"
       d="m 134.15642,193.84463 1.25068,-1.38906 -1.95376,-0.16998 c -2.62252,-0.22816 -3.1444,-0.0924 -3.1444,0.81786 0,0.53295 0.2598,0.90766 0.98905,1.42653 0.54398,0.38704 1.12826,0.70371 1.29841,0.70371 0.17014,0 0.87215,-0.62508 1.56002,-1.38906 z"
       id="path3965"
       inkscape:connector-curvature="0" />
    <path
       style="fill:none;stroke:#000000;stroke-width:0.26458332;stroke-opacity:1"
       d="m 27.385918,192.37384 c 0,-0.26322 0.165709,-0.70521 0.368243,-0.9822 0.304582,-0.41654 0.438275,-0.44548 0.773324,-0.16741 0.341762,0.28364 0.418613,0.24241 0.491653,-0.26373 0.0526,-0.36451 0.321917,-0.65608 0.686332,-0.74305 0.329868,-0.0787 0.77208,-0.47593 0.982695,-0.88268 0.345301,-0.66687 0.338363,-0.75605 -0.07059,-0.90743 -0.249441,-0.0923 -2.001342,-0.81472 -3.893113,-1.60531 -1.891771,-0.7906 -4.094428,-1.7074 -4.894792,-2.03736 -0.800365,-0.32995 -2.645833,-1.0995 -4.101042,-1.71011 -1.455208,-0.61061 -3.062551,-1.27078 -3.571874,-1.46706 -0.509323,-0.19627 -1.938073,-0.79334 -3.175001,-1.32682 -3.3368567,-1.43917 -3.0744927,-1.47079 -3.2856867,0.39592 -0.173358,1.53228 -0.145231,1.65546 0.4925817,2.15716 0.4276577,0.3364 0.6764387,0.79529 0.6764387,1.24773 0,1.1469 2.0355743,3.27007 3.4677303,3.61695 0.981343,0.23769 1.175523,0.3932 1.246198,0.99799 0.07456,0.63801 0.19341,0.71643 1.085844,0.71643 0.692317,0 1.214891,-0.19719 1.690354,-0.63783 0.719904,-0.66719 2.093365,-1.10827 2.557585,-0.82137 0.149071,0.0921 0.271039,0.85998 0.271039,1.70632 0,0.84635 0.07441,1.91089 0.165364,2.36564 l 0.165365,0.82682 h 3.935677 c 3.620671,0 3.935678,-0.0383 3.935678,-0.4786 z"
       id="path3961"
       inkscape:connector-curvature="0" />
    <path
       style="fill:none;stroke:#000000;stroke-width:0.26458332;stroke-opacity:1"
       d="m 110.40368,189.75488 0.60001,-0.64411 -0.55297,-0.77658 c -0.30413,-0.42712 -0.51311,-0.98425 -0.46438,-1.23807 0.0788,-0.41066 0.52782,-0.4695 4.07703,-0.53429 l 3.98846,-0.0728 0.75408,-0.78709 c 0.41474,-0.4329 0.91744,-0.78709 1.11708,-0.78709 0.19964,0 0.29405,-0.11154 0.2098,-0.24787 -0.0843,-0.13633 0.31245,-0.62207 0.88157,-1.07942 0.65102,-0.52318 1.09582,-1.13686 1.19941,-1.6548 0.093,-0.46499 -0.17334,-2.90257 -0.61201,-5.60131 -0.42716,-2.62793 -0.98829,-6.18903 -1.24696,-7.91355 -0.43157,-2.87727 -0.52345,-3.15569 -1.11563,-3.38084 -0.35493,-0.13494 -0.69079,-0.19988 -0.74636,-0.14431 -0.0556,0.0556 -0.89631,1.39835 -1.86831,2.98396 l -1.76726,2.88293 -0.14553,3.30729 -0.14553,3.3073 -1.32291,0.1513 c -3.10695,0.35535 -6.63742,2.94095 -8.04064,5.88868 -0.59039,1.24023 -0.81264,2.15787 -0.92414,3.81574 l -0.14683,2.18282 h 0.92121 c 0.82763,0 0.97907,0.11912 1.49098,1.17276 l 0.56977,1.17276 1.34502,-0.67965 c 0.73976,-0.3738 1.61503,-0.96949 1.94504,-1.32375 z"
       id="path3953"
       inkscape:connector-curvature="0" />
    <path
       style="fill:none;stroke:#000000;stroke-width:0.26458332;stroke-opacity:1"
       d="m 137.03693,191.11349 c 0.22868,-0.22867 0.41577,-0.58427 0.41577,-0.7902 0,-0.20593 0.38696,-0.53723 0.8599,-0.73621 0.56191,-0.23642 0.96952,-0.65814 1.17624,-1.21697 0.2717,-0.73447 0.26033,-0.83368 -0.0805,-0.70287 -0.86995,0.33383 -3.93426,0.70126 -4.61022,0.5528 -0.39517,-0.0868 -0.99233,-0.44929 -1.32701,-0.80554 -0.70883,-0.75451 -1.33626,-0.81611 -2.24538,-0.22043 -0.50791,0.33279 -0.65215,0.65465 -0.65215,1.45521 0,0.96426 0.0488,1.0279 0.78871,1.0279 0.61841,0 0.82419,0.14133 0.95299,0.65452 0.16493,0.65715 0.41197,0.75336 2.62393,1.02191 1.54511,0.18759 1.68621,0.17144 2.09777,-0.24012 z"
       id="path3947"
       inkscape:connector-curvature="0" />
    <path
       style="fill:none;stroke:#000000;stroke-width:0.26458332;stroke-opacity:1"
       d="m 103.33774,186.87809 c 0.15843,-2.51499 0.52802,-3.64256 1.73991,-5.30817 1.7802,-2.44668 5.51396,-4.85732 7.52338,-4.85732 h 1.03912 v -2.81885 c 0,-3.0932 -0.0893,-2.85142 2.76965,-7.4999 0.49224,-0.80037 0.81459,-1.52972 0.71631,-1.62079 -0.0983,-0.0911 -1.16857,-0.49035 -2.37846,-0.88727 -2.03369,-0.66721 -2.22424,-0.68823 -2.52391,-0.2784 -0.50592,0.69188 -1.6458,0.24407 -2.75432,-1.08205 -0.53259,-0.63715 -1.19682,-1.23097 -1.47608,-1.3196 -0.27926,-0.0886 -1.17681,-0.5646 -1.99456,-1.05772 -2.13247,-1.2859 -2.56368,-1.21677 -3.06321,0.49114 -0.22346,0.76399 -0.78655,2.58799 -1.25133,4.05334 -0.84433,2.66194 -0.84686,2.66589 -2.890189,4.49792 -1.12483,1.0085 -2.05462,1.90711 -2.06622,1.99691 -0.0116,0.0898 0.44246,0.47004 1.009,0.84496 l 1.03008,0.68167 0.18991,3.78526 c 0.18346,3.65676 0.21305,3.80266 0.87152,4.29797 0.374879,0.282 1.105809,0.58167 1.624289,0.66595 0.91754,0.14914 0.94267,0.18485 0.94267,1.33936 0,1.09728 -0.0545,1.19241 -0.7276,1.26986 -0.6905,0.0794 -0.72761,0.15442 -0.72761,1.46955 0,1.08788 0.17211,1.65722 0.80049,2.64807 0.44026,0.69422 0.94628,1.21411 1.12448,1.15531 0.20762,-0.0685 0.3774,-0.95465 0.47268,-2.4672 z"
       id="path3943"
       inkscape:connector-curvature="0" />
    <path
       style="fill:none;stroke:#000000;stroke-width:0.26458332;stroke-opacity:1"
       d="m 33.290292,187.7898 c 0.760984,-0.39487 4.133658,-2.56846 7.437665,-4.79335 2.485301,-1.67358 2.744847,-1.78594 4.125633,-1.78594 1.462283,0 1.482439,0.0109 2.652387,1.43526 l 1.178904,1.43526 5.380757,0.0861 c 3.375522,0.054 5.45978,-0.0125 5.592807,-0.17849 0.116631,-0.14552 0.536885,-1.25022 0.9339,-2.45488 l 0.721844,-2.19029 -0.742646,-1.07164 -0.742645,-1.07164 1.571741,-3.06479 c 3.150867,-6.14401 6.465496,-12.63708 6.466009,-12.66636 0.0011,-0.0598 -3.087545,-1.3584 -5.006872,-2.1052 l -1.964687,-0.76444 -1.146186,-2.45278 c -0.840681,-1.79901 -1.27685,-2.45277 -1.636405,-2.45277 -0.269621,0 -1.021866,-0.0729 -1.671656,-0.16193 -1.178277,-0.16151 -1.184039,-0.15832 -2.153155,1.19062 -0.885767,1.23292 -1.063734,1.35256 -2.012,1.35256 -1.01168,0 -1.054415,0.0379 -1.554261,1.37784 -0.700293,1.87729 -1.53797,2.18508 -2.917637,1.07205 -0.702902,-0.56707 -0.994867,-1.02662 -1.057468,-1.66446 -0.05202,-0.52998 -0.447413,-1.30278 -0.992187,-1.93923 -1.081842,-1.26389 -1.102336,-1.49533 -0.244253,-2.75812 0.363802,-0.53538 0.661458,-1.11524 0.661458,-1.28857 0,-0.17334 -0.297656,-0.6689 -0.661458,-1.10126 -0.37343,-0.4438 -0.661458,-1.12086 -0.661458,-1.55488 0,-0.73795 -0.401585,-1.40379 -0.846667,-1.40379 -0.116416,0 -0.211666,0.17175 -0.211666,0.38166 0,0.25918 -0.357495,0.40778 -1.113937,0.46303 -0.925147,0.0676 -1.139042,0.18869 -1.262065,0.71471 -0.11358,0.48563 -0.609714,0.83336 -2.127211,1.4909 -1.763104,0.76397 -2.320849,0.87161 -5.110842,0.98638 l -3.131762,0.12883 -0.770844,-1.06412 c -0.50238,-0.69351 -0.770844,-1.38709 -0.770844,-1.99147 0,-0.88164 -0.02385,-0.90577 -0.483855,-0.48947 -0.566421,0.51261 -1.895563,0.58751 -1.901447,0.10716 -0.0028,-0.23039 -0.06303,-0.2419 -0.198438,-0.0379 -0.106912,0.16105 -1.243295,0.35668 -2.525295,0.43473 -1.281999,0.078 -2.382087,0.19309 -2.44464,0.25564 -0.06255,0.0626 -0.187552,0.48284 -0.277777,0.93397 -0.150384,0.75192 -0.101034,0.82743 0.592556,0.90675 0.67182,0.0768 0.756603,0.19028 0.756603,1.01256 v 0.92604 l -1.389063,0.08 c -1.286204,0.074 -1.389062,0.12924 -1.389062,0.74526 0,0.3659 0.32067,1.0857 0.712599,1.59955 0.620163,0.81307 0.738596,1.2827 0.913002,3.62037 0.110221,1.47735 0.269353,3.16235 0.353625,3.74443 0.118535,0.81873 -0.07721,1.71723 -0.86462,3.96875 l -1.017842,2.91042 -1.87755,0.0773 c -1.804948,0.0743 -1.905368,0.11375 -2.596914,1.02041 -0.650075,0.85229 -0.811559,0.92841 -1.676561,0.79027 -0.85668,-0.13681 -1.004527,-0.0703 -1.407912,0.63323 -0.34464,0.6011 -0.640418,0.78611 -1.256771,0.78611 -0.743801,0 -0.806057,0.0711 -0.806057,0.91994 0,0.68154 -0.166154,1.02881 -0.641154,1.34004 -0.5651196,0.37028 -0.6514057,0.64905 -0.7276037,2.35068 l -0.08645,1.93058 2.6458337,1.08372 c 1.455209,0.59605 3.538802,1.45743 4.630209,1.91418 1.091406,0.45676 3.532187,1.46748 5.423958,2.24605 1.891769,0.77858 4.332552,1.79346 5.423959,2.25529 5.592298,2.36638 5.100294,2.21645 5.904374,1.79922 z"
       id="path3937"
       inkscape:connector-curvature="0" />
    <path
       style="fill:none;stroke:#000000;stroke-width:0.26458332;stroke-opacity:1"
       d="m 89.779491,185.35765 c 1.63038,-2.17868 2.47602,-3.81968 3.43236,-6.66068 0.14695,-0.43656 0.69276,-1.71648 1.21291,-2.84427 l 0.94572,-2.05052 h -0.63314 c -1.33612,0 -1.78506,-0.44444 -1.11676,-1.10558 1.05015,-1.03891 5.2484,-4.82963 5.69632,-5.14337 0.34517,-0.24177 0.934559,-1.66156 1.734469,-4.17819 1.34201,-4.22213 1.40167,-4.64729 0.78434,-5.58946 -0.39313,-0.59998 -0.59079,-0.65215 -2.471199,-0.65215 h -2.04389 l -0.35558,1.0774 c -0.35682,1.08117 -1.10237,1.83302 -1.81768,1.83302 -1.31983,0 -1.81699,-2.30663 -0.80384,-3.72947 l 0.54718,-0.76845 h -1.42265 c -0.84129,0 -1.63254,-0.15874 -1.93625,-0.38846 -0.28247,-0.21365 -0.83426,-0.39224 -1.22619,-0.39687 -0.77289,-0.009 -1.53636,-0.84688 -1.53636,-1.68586 0,-0.3733 -0.43051,-0.0834 -1.68555,1.1351 -1.48877,1.44539 -1.71273,1.79654 -1.91823,3.00762 l -0.23268,1.37118 -1.22179,0.0792 -1.2218,0.0792 -1.55633,-2.14574 c -5.860953,-8.08063 -5.262473,-7.4054 -6.563673,-7.4054 -1.286367,0 -1.474753,-0.23082 -1.475248,-1.80757 l -3.01e-4,-0.97055 -1.587198,-0.009 c -1.552221,-0.009 -1.587196,0.007 -1.587196,0.7087 0,1.22806 -0.596135,1.54954 -2.873372,1.54954 -1.519457,0 -2.30736,0.13537 -3.079753,0.52916 -0.570862,0.29104 -1.538967,0.52917 -2.151348,0.52917 -1.098986,0 -1.119029,0.0169 -1.546585,1.30415 -0.630314,1.8977 -0.609131,2.08427 0.521782,4.5953 0.957692,2.12641 1.106319,2.31398 2.103332,2.65437 0.59005,0.20145 2.233679,0.82043 3.652507,1.37552 2.022091,0.79109 2.579687,1.11949 2.579687,1.51931 0,0.24511 -1.360778,3.1095 -3.157571,6.66759 -0.259616,0.51411 -0.528335,1.04269 -0.803366,1.57995 l -3.960934,7.73748 0.73465,1.03368 c 0.404056,0.56853 1.248498,2.24355 1.876534,3.72228 1.05419,2.4821 1.205447,2.69942 1.969516,2.82969 0.455197,0.0776 3.089817,0.44709 5.854712,0.82109 7.794985,1.05438 14.485375,1.97106 15.213545,2.08449 0.3638,0.0567 0.80072,0.11925 0.97093,0.13907 0.17022,0.0198 1.1404,-1.07432 2.15597,-2.43142 z"
       id="path3931"
       inkscape:connector-curvature="0"
       sodipodi:nodetypes="ccccscsccsccsccsccsccccccscccsscsscccsssccccccccc" />
    <path
       style="fill:none;stroke:#000000;stroke-width:0.26458332;stroke-opacity:1"
       d="m 139.38455,186.52919 c 1.58235,-0.52994 2.30038,-1.56254 2.30108,-3.30919 2.6e-4,-0.96518 -0.0301,-1.00597 -0.46261,-0.61959 -0.25467,0.22748 -1.1774,0.50119 -2.05052,0.60823 -1.02929,0.1262 -1.87539,0.41384 -2.40623,0.81803 -1.25775,0.95769 -1.60639,0.81527 -2.42154,-0.98924 l -0.72848,-1.61265 -1.02857,0.8189 c -0.56572,0.45039 -1.13696,0.81889 -1.26942,0.81889 -0.13246,0 -0.53935,-0.32211 -0.90421,-0.7158 l -0.66338,-0.7158 -0.79262,0.84809 c -0.43593,0.46645 -0.88084,0.84809 -0.98869,0.84809 -0.10785,0 -0.72191,-0.53578 -1.36459,-1.19062 -1.02526,-1.04466 -1.30774,-1.19063 -2.30407,-1.19063 h -1.13554 v 1.00643 c 0,0.80286 -0.18731,1.18799 -0.92604,1.90399 -1.09254,1.05893 -1.13398,1.46439 -0.25212,2.46691 l 0.6572,0.74713 1.68706,-1.34244 c 0.92789,-0.73834 1.84878,-1.34215 2.04643,-1.34181 0.19766,2.7e-4 1.06005,0.4766 1.91643,1.05834 1.72429,1.17128 1.85983,1.20318 2.80857,0.66083 0.95795,-0.54761 1.70982,-0.48145 2.5594,0.2252 0.41135,0.34214 0.9265,0.69507 1.14478,0.7843 0.59818,0.24451 3.02669,-0.0662 4.57768,-0.58559 z"
       id="path3925"
       inkscape:connector-curvature="0" />
    <path
       style="fill:none;stroke:#000000;stroke-width:0.26458332;stroke-opacity:1"
       d="m 139.00317,182.15224 c 2.11835,-0.25981 2.68287,-0.7314 2.68287,-2.24123 v -1.23863 l -1.78594,-0.3159 c -0.98227,-0.17374 -2.04481,-0.3881 -2.36121,-0.47634 -0.48238,-0.13455 -0.58917,-0.0388 -0.66145,0.59277 -0.076,0.66367 -0.20635,0.76311 -1.09685,0.83644 -1.18024,0.0972 -1.76747,-0.29285 -1.76747,-1.17395 0,-0.73909 -0.10624,-0.75481 -1.58217,-0.23407 -1.05433,0.37199 -1.16472,0.36284 -1.89476,-0.15699 -0.78321,-0.5577 -1.55017,-0.52454 -1.55017,0.067 0,0.95229 1.86021,3.9283 2.45545,3.9283 0.13559,0 0.71249,-0.36903 1.28197,-0.82007 0.56949,-0.45105 1.18193,-0.76209 1.36099,-0.69121 0.17906,0.0709 0.60171,0.85286 0.93923,1.73773 l 0.61366,1.60886 0.97384,-0.6244 c 0.53561,-0.34342 1.61201,-0.70268 2.39201,-0.79834 z"
       id="path3911"
       inkscape:connector-curvature="0" />
    <path
       style="fill:none;stroke:#000000;stroke-width:0.26458332;stroke-opacity:1"
       d="m 128.44163,179.29505 -0.61052,-1.70233 2.16496,-3.20588 c 1.19073,-1.76324 2.16497,-3.32476 2.16497,-3.47004 0,-0.40978 -1.82206,-2.09235 -3.51886,-3.24947 -1.80155,-1.22857 -3.94993,-2.02356 -6.07233,-2.24703 -1.48688,-0.15655 -1.52135,-0.14528 -1.52135,0.49725 0,0.36159 0.29157,2.37284 0.64794,4.46946 0.35637,2.09662 0.78061,4.82407 0.94276,6.06099 0.47109,3.59354 0.3866,3.43959 1.88779,3.43959 1.16247,0 1.42466,0.1155 2.40869,1.06102 1.08746,1.04493 1.11189,1.05335 1.61034,0.5549 0.49845,-0.49845 0.49687,-0.53196 -0.10439,-2.20846 z"
       id="path3905"
       inkscape:connector-curvature="0" />
    <path
       style="fill:none;stroke:#000000;stroke-width:0.26458332;stroke-opacity:1"
       d="m 136.12979,177.63033 c 0,-0.95418 0.52188,-1.04415 3.09382,-0.53337 2.63793,0.52389 3.04483,0.32462 2.18337,-1.06925 -0.28308,-0.45803 -0.51469,-1.26522 -0.51469,-1.79375 V 173.273 h -2.63257 c -2.48733,0 -2.69746,-0.0438 -3.80868,-0.79375 -0.64687,-0.43656 -1.23367,-0.79375 -1.30402,-0.79375 -0.14428,0 -3.10266,4.34949 -3.10266,4.56161 0,0.0752 0.35326,0.28302 0.78502,0.46186 0.61743,0.25575 1.06999,0.25681 2.11975,0.005 1.67766,-0.40247 2.12232,-0.23819 2.12232,0.78409 0,0.62566 0.11638,0.80205 0.52917,0.80205 0.38981,0 0.52917,-0.17639 0.52917,-0.66976 z"
       id="path3891"
       inkscape:connector-curvature="0" />
    <path
       style="fill:none;stroke:#000000;stroke-width:0.26458332;stroke-opacity:1"
       d="m 49.973015,156.6548 c 0.482643,-1.33118 0.523897,-1.36747 1.737191,-1.52842 1.123402,-0.14902 1.329121,-0.29135 2.141159,-1.48133 l 0.89835,-1.31647 1.843673,0.0852 c 1.827233,0.0844 1.846683,0.0781 2.181169,-0.70644 0.185624,-0.43538 0.342868,-1.0595 0.349432,-1.38692 0.01042,-0.52065 -0.121512,-0.59531 -1.052073,-0.59531 -0.909841,0 -1.108535,-0.10542 -1.371333,-0.7276 -0.169029,-0.40019 -0.727286,-1.09849 -1.24057,-1.5518 l -0.933243,-0.82418 0.332811,-4.04477 c 0.231965,-2.81917 0.248819,-4.12876 0.05562,-4.32196 -0.152456,-0.15245 -0.277193,-0.67383 -0.277193,-1.15862 0,-1.04111 -0.724705,-1.50505 -1.173734,-0.7514 -0.966182,1.62162 -2.075228,2.797 -2.639163,2.797 -0.337511,0 -0.916385,0.23812 -1.286383,0.52916 -0.382421,0.30082 -1.073357,0.52917 -1.601113,0.52917 -0.706654,0 -1.056211,0.17378 -1.46358,0.7276 -0.469987,0.63896 -0.601181,0.68731 -1.076811,0.39688 -0.29789,-0.1819 -0.982046,-0.33073 -1.520344,-0.33073 -0.582435,0 -1.199892,-0.19942 -1.524945,-0.49252 -0.300421,-0.27088 -0.955382,-0.62962 -1.455468,-0.79719 l -0.909252,-0.30467 0.578522,0.6158 c 0.3218,0.34254 0.579542,0.96047 0.58082,1.39251 0.0013,0.42718 0.07738,1.40177 0.169145,2.16576 l 0.166846,1.38906 h 1.039276 c 1.459313,0 3.108799,1.36089 3.11558,2.57048 0.0031,0.56322 0.273,1.15619 0.798521,1.75472 0.970695,1.10556 0.999109,1.86433 0.118358,3.16047 l -0.675391,0.99393 0.807683,0.97986 c 0.50124,0.60809 0.807683,1.27947 0.807683,1.76953 0,0.7976 1.148472,2.06864 1.719792,1.90333 0.14552,-0.0421 0.487055,-0.69016 0.758967,-1.44011 z"
       id="path3869"
       inkscape:connector-curvature="0" />
    <path
       style="fill:none;stroke:#000000;stroke-width:0.26458332;stroke-opacity:1"
       d="m 84.006751,156.9053 c 0,-0.93725 0.18772,-1.20208 2.26701,-3.19829 2.48032,-2.3812 3.28674,-3.4915 3.28825,-4.52734 0.001,-1.00557 -0.90275,-1.83583 -1.99936,-1.83583 -1.10396,0 -1.12561,-0.0408 -2.24472,-4.22611 -0.44641,-1.66951 -0.85732,-3.08115 -0.91314,-3.13696 -0.0558,-0.0558 -0.89128,1.47461 -1.85657,3.40095 l -1.75507,3.50244 -2.03122,-0.17829 c -1.11717,-0.0981 -2.656296,-0.24916 -3.420281,-0.33576 l -1.389062,-0.15746 v 0.92865 c 0,0.88508 0.05175,0.93693 1.102797,1.105 1.168302,0.18682 1.201041,0.21619 2.939656,2.63725 0.61431,0.85544 1.35505,1.88348 1.64609,2.28453 0.29104,0.40106 1.1761,1.63592 1.9668,2.74414 1.66381,2.33196 2.39882,2.63624 2.39882,0.99308 z"
       id="path3867"
       inkscape:connector-curvature="0" />
    <path
       style="fill:#000000;stroke-width:0.26458332"
       d=""
       id="path3849"
       inkscape:connector-curvature="0" />
    <ellipse
       style="fill:#000000;fill-opacity:0.96380364;stroke:#000000;stroke-width:0.26458332;stroke-opacity:1"
       id="path4866"
       cx="154.78125"
       cy="14.028125"
       rx="1.8520833"
       ry="1.7197917" />
    <ellipse
       ry="1.7197917"
       rx="1.8520833"
       cy="120.39062"
       cx="121.44375"
       id="ellipse4868"
       style="fill:#000000;fill-opacity:0.96380364;stroke:#000000;stroke-width:0.26458332;stroke-opacity:1" />
    <ellipse
       ry="1.7197917"
       rx="1.8520833"
       cy="63.240623"
       cx="104.775"
       id="ellipse4870"
       style="fill:#000000;fill-opacity:0.96380364;stroke:#000000;stroke-width:0.26458332;stroke-opacity:1" />
    <ellipse
       style="fill:#000000;fill-opacity:0.96380364;stroke:#000000;stroke-width:0.26458332;stroke-opacity:1"
       id="ellipse4874"
       cx="183.88542"
       cy="89.963539"
       rx="1.8520833"
       ry="1.7197917" />
    <ellipse
       style="fill:#000000;fill-opacity:0.96380364;stroke:#000000;stroke-width:0.15891211;stroke-opacity:1"
       id="path4895"
       cx="97.011703"
       cy="220.16068"
       rx="0.26846844"
       ry="0.24691649" />
    <path
       style="fill:none;stroke:#000000;stroke-width:0.26458332px;stroke-linecap:butt;stroke-linejoin:miter;stroke-opacity:1"
       d="m 63.103124,170.66146 v -1.5875 l -3.175,-1.5875 2.645834,-1.45521 0.132291,0.52917 2.38125,0.26458 z"
       id="path4901"
       inkscape:connector-curvature="0" />
    <path
       style="fill:#000000;stroke-width:0.2230598"
       d="M 210.83584,188.08294 V 85.07255 h 155.91831 155.91831 v 103.01039 103.0104 H 366.75415 210.83584 Z m 77.05417,81.71398 c -0.003,-12.58319 -0.0983,-21.24244 -0.24366,-22.12547 -0.65773,-3.9942 -2.16096,-7.18178 -4.0948,-8.68294 -1.29672,-1.00659 -2.25597,-1.26238 -3.57989,-0.95458 -1.67009,0.38827 -3.72557,2.16767 -5.52769,4.78524 -1.17129,1.70128 -1.28074,1.79513 -2.46951,2.11753 -3.95057,1.07143 -8.65011,1.28772 -12.02545,0.55346 -5.75652,-1.25226 -9.45414,-4.654 -10.45566,-9.61903 -0.67015,-3.32225 0.20451,-7.31064 2.13432,-9.73235 1.33641,-1.67705 4.02259,-3.36862 6.61982,-4.1687 1.61079,-0.49621 3.45209,-0.71023 6.1215,-0.71155 2.4185,-0.001 3.46653,0.10004 5.40133,0.52173 1.32032,0.28776 2.65169,0.57711 2.9586,0.643 0.30691,0.0659 0.6484,0.32506 0.75888,0.57593 0.41463,0.94159 2.53286,3.54789 3.70683,4.56095 2.43027,2.09717 4.30253,2.28434 6.54185,0.65399 0.78829,-0.57392 2.60331,-3.51223 3.00183,-4.85962 1.01728,-3.43948 0.98183,-2.81604 1.08373,-19.05886 l 0.0979,-15.60237 -19.99748,0.0608 c -18.33929,0.0558 -20.11691,0.0914 -21.43783,0.42935 -1.60215,0.40989 -2.42694,0.96561 -2.19792,1.4809 0.0821,0.18482 1.06154,0.71394 2.17644,1.17583 1.82877,0.75763 2.06644,0.92415 2.42917,1.70205 0.60965,1.30743 0.54513,3.61961 -0.12995,4.65666 -0.66213,1.01717 -2.2506,2.18667 -3.63513,2.67636 -1.49899,0.53017 -6.83226,0.52898 -8.33332,-0.002 -1.49929,-0.53021 -2.53456,-1.27289 -3.40282,-2.44113 -0.6742,-0.90712 -0.7561,-1.18279 -0.74959,-2.52308 0.005,-0.9846 0.15812,-1.80561 0.44362,-2.37529 0.38549,-0.76919 0.674,-0.9744 2.47681,-1.76175 3.07544,-1.34313 2.85151,-1.96797 -0.98511,-2.74879 -1.24577,-0.25354 -3.53991,-0.31308 -12.15812,-0.31557 l -10.62261,-0.003 v 50.8834 50.8834 h 38.04935 38.04935 l -0.005,-20.67462 z m 77.54381,4.19544 c 0,-17.76116 0.0669,-18.91458 1.27591,-21.99993 0.73471,-1.87495 2.28298,-3.84759 3.36913,-4.29259 2.10319,-0.86169 4.21545,-0.23494 6.27613,1.86224 0.71949,0.73224 1.58774,1.74323 1.92944,2.24664 0.50438,0.74308 0.83311,0.97341 1.74726,1.22422 4.93515,1.35402 9.87162,0.70393 13.05365,-1.71907 1.43324,-1.09137 2.03002,-1.93422 2.61059,-3.68702 0.74857,-2.26003 0.50626,-4.93366 -0.6354,-7.01086 -0.54957,-0.9999 -2.65874,-2.70819 -4.04,-3.27213 -1.47019,-0.60024 -4.27906,-1.17588 -5.73777,-1.17588 -1.48568,0 -5.11468,0.57067 -5.92245,0.93132 -0.37068,0.1655 -1.02338,0.79313 -1.45044,1.39473 -1.84463,2.59853 -4.01522,4.09914 -5.92927,4.09914 -2.26268,0 -4.40282,-2.01678 -5.48239,-5.1664 -1.02826,-2.99992 -1.06241,-3.86041 -1.06342,-26.79369 l -9.7e-4,-21.90777 -21.06517,-0.0794 c -18.5043,-0.0698 -21.28406,-0.12118 -22.86562,-0.42297 -3.81086,-0.72719 -5.52136,-1.76874 -5.52136,-3.36204 0,-0.76244 1.52531,-2.07522 3.27554,-2.81915 1.67893,-0.71362 1.74008,-0.76509 2.18025,-1.83514 0.85028,-2.06706 -0.20891,-4.45125 -2.40894,-5.4224 -2.99491,-1.32203 -6.69967,-1.32203 -9.69458,0 -1.79313,0.79153 -2.84113,2.45383 -2.66789,4.23167 0.16724,1.71613 0.58028,2.23368 2.45179,3.07207 2.21878,0.99397 3.02289,1.78573 3.02289,2.97649 0,0.81023 -0.1092,0.99397 -0.96786,1.62854 -2.01725,1.49081 -4.29888,1.80843 -13.97581,1.94554 l -7.86194,0.11139 v 14.8638 c 0,15.87867 -0.098,17.49925 -1.23403,20.4131 -1.12748,2.89184 -2.93676,5.11488 -4.85337,5.96327 -1.34741,0.59644 -3.2704,0.58496 -4.7655,-0.0284 -1.45701,-0.59778 -4.21276,-3.09777 -5.22864,-4.74337 -0.42908,-0.69507 -1.04023,-1.41089 -1.3581,-1.59071 -2.15177,-1.21729 -9.25892,-1.65005 -12.41512,-0.75596 -2.31107,0.65467 -3.93835,1.43275 -5.03271,2.40635 -2.65294,2.36023 -3.61054,4.57211 -3.593,8.29924 0.009,1.90247 0.11591,2.54873 0.64612,3.90368 0.72865,1.86206 1.3437,2.71527 3.0259,4.19763 2.38565,2.10223 5.6127,3.07768 10.08238,3.04763 2.80541,-0.0189 5.66785,-0.42422 7.05186,-0.99863 0.49944,-0.20728 0.95058,-0.66553 1.3502,-1.37145 0.74223,-1.31114 3.31385,-3.94736 4.51073,-4.62404 1.8961,-1.072 4.28414,-1.17164 6.1719,-0.25752 2.20078,1.06569 4.52357,4.82803 5.20755,8.43493 0.21585,1.13827 0.31456,7.31217 0.36866,23.05816 l 0.0739,21.50368 h 38.045 38.04499 z m 77.72251,-15.07629 -0.0656,-31.556 -0.55372,-1.70171 c -1.2804,-3.93495 -2.90901,-5.77346 -5.08939,-5.74536 -1.83456,0.0237 -2.97105,0.84117 -5.02216,3.61268 -0.7171,0.96896 -1.41899,1.87281 -1.55973,2.00854 -0.14073,0.13574 -1.1201,0.45486 -2.17635,0.70916 -1.55924,0.3754 -2.57524,0.46543 -5.40133,0.47864 -3.03776,0.0142 -3.69325,-0.0452 -5.14937,-0.46625 -2.05452,-0.59413 -2.79203,-0.91866 -4.36045,-1.91877 -2.29523,-1.46356 -3.64178,-3.49669 -4.33586,-6.54663 -0.49158,-2.16014 -0.23155,-4.32327 0.80516,-6.69777 0.56754,-1.29988 0.94803,-1.78402 2.34458,-2.98327 2.64128,-2.26814 5.63961,-3.22808 10.09579,-3.23228 2.57192,-0.002 4.73363,0.2681 6.78781,0.84942 1.26624,0.35834 1.58228,0.54732 1.98145,1.18491 3.99393,6.3795 8.13133,6.66862 10.51017,0.73446 1.10763,-2.76301 1.24561,-4.06013 1.24561,-11.70849 v -7.23208 l -20.46502,10e-4 c -13.47213,8.3e-4 -20.79315,0.0753 -21.42527,0.21804 -1.65236,0.3732 -2.28066,0.64844 -2.27759,0.99772 0.004,0.4199 1.28409,1.15186 2.61887,1.49714 1.2554,0.32475 1.69922,1.11178 1.69922,3.01328 0,3.13252 -2.47344,5.01263 -6.85599,5.21139 -2.59094,0.11751 -4.2771,-0.23393 -5.81627,-1.21226 -1.44742,-0.92011 -1.97134,-1.90764 -1.97134,-3.71589 0,-1.97595 0.58354,-2.99488 1.91196,-3.33851 0.5235,-0.13542 1.30671,-0.51133 1.74047,-0.83537 0.76767,-0.57349 0.77618,-0.59755 0.31964,-0.904 -1.13283,-0.7604 -1.96863,-0.81348 -13.8745,-0.88119 l -11.70287,-0.0666 4e-5,22.23659 c 4e-5,23.87303 -0.0176,23.48965 1.23382,26.84253 0.87207,2.33656 2.16697,3.581 3.7262,3.581 1.1635,0 3.12008,-1.38267 4.10614,-2.9017 1.43614,-2.21238 1.43308,-2.20973 3.00281,-2.59447 3.55381,-0.87101 7.83139,-0.98434 10.49653,-0.27809 1.21483,0.32193 3.84715,1.57649 4.65374,2.21797 1.06992,0.85091 2.48179,2.84358 2.93566,4.14331 0.49971,1.43102 0.56823,4.56792 0.12527,5.73454 -1.29505,3.41069 -3.4175,5.29656 -7.29067,6.47801 -1.50543,0.45921 -2.1553,0.53349 -4.74506,0.54235 -2.87142,0.01 -4.31906,-0.16697 -6.73281,-0.8223 -0.98955,-0.26866 -1.17403,-0.42837 -1.97659,-1.71128 -0.97318,-1.55563 -3.10727,-3.4538 -4.13295,-3.67607 -0.94544,-0.20487 -2.11425,0.35573 -2.96345,1.42139 -0.85685,1.07527 -1.8268,3.60003 -2.18351,5.68365 -0.1638,0.95678 -0.25517,7.46977 -0.25517,18.18745 v 16.69689 h 38.05384 38.05383 z m 78.79595,-19.32693 v -50.8834 h -23.02454 c -19.28357,0 -23.32487,0.0496 -24.87292,0.30534 -1.94553,0.32139 -3.1278,0.79118 -3.56984,1.41853 -0.22018,0.31247 -0.14269,0.4641 0.45477,0.88985 0.70884,0.50513 3.04078,1.53156 3.47953,1.53156 0.37269,0 0.70794,0.72813 1.1121,2.41546 0.48809,2.03775 0.17939,3.39505 -1.05542,4.64058 -2.38429,2.40499 -8.12914,3.02582 -12.59023,1.3606 -2.54026,-0.94821 -4.02173,-3.47695 -3.49708,-5.96916 0.34446,-1.63622 0.79171,-2.22018 2.06556,-2.69683 3.27505,-1.22546 3.94525,-2.09243 2.20876,-2.85729 -1.93099,-0.85055 -3.93459,-1.03864 -11.06367,-1.03864 h -6.70595 v 6.19597 c 0,8.80679 -0.35656,11.30866 -2.0575,14.43643 -1.05295,1.93623 -2.53183,3.29412 -3.94151,3.61907 -2.85605,0.65838 -5.16011,-0.56982 -8.0039,-4.26655 -1.42953,-1.85825 -1.69892,-1.98712 -5.20181,-2.4884 -2.56994,-0.36777 -3.77536,-0.36424 -5.86043,0.0171 -5.8557,1.07106 -9.02604,4.37906 -9.0214,9.41313 0.003,3.18816 1.0225,5.40753 3.40686,7.41609 2.01347,1.69613 6.38073,2.92764 9.55385,2.69407 2.06899,-0.1523 5.31598,-0.74213 5.74324,-1.04329 0.18768,-0.1323 0.79743,-0.8468 1.35497,-1.58777 2.40875,-3.2012 4.26479,-4.43027 6.6902,-4.43027 1.17233,0 1.64781,0.1049 2.35433,0.5194 2.5506,1.49642 4.17196,4.68093 4.73483,9.29974 0.14807,1.21507 0.24154,13.45672 0.24411,31.97053 l 0.004,30.00151 h 38.52946 38.52947 z m -51.74207,-38.76493 c 1.55673,-0.40771 2.58747,-1.03421 3.33154,-2.02499 0.83581,-1.11291 0.99809,-2.17278 0.54066,-3.53131 -0.36484,-1.08354 -0.43355,-1.14635 -2.06247,-1.88539 -2.03188,-0.92186 -3.36075,-2.03115 -3.36075,-2.80543 0,-0.85363 1.31617,-1.75508 3.4742,-2.3795 0.26039,-0.0754 1.65787,-0.27187 3.1055,-0.43672 2.13196,-0.24278 6.81957,-0.29973 24.67271,-0.29973 h 22.04068 v -50.8834 -50.8834 h -38.52947 -38.52946 v 12.94599 c 0,12.28105 0.025,13.03873 0.48756,14.75134 0.80664,2.98693 2.40584,5.0512 3.91197,5.04966 0.41895,-4.1e-4 1.10452,-0.18122 1.52344,-0.40177 0.80434,-0.42345 2.31112,-2.06202 3.28103,-3.56801 0.31885,-0.49509 0.89,-1.03393 1.26924,-1.19742 1.71277,-0.73845 6.89212,-1.06975 9.82766,-0.62865 3.13783,0.47151 6.59411,2.60631 7.87432,4.86364 0.70466,1.24255 1.34329,3.45803 1.34433,4.66375 0.002,2.02465 -1.34057,4.99848 -2.88081,6.38244 -3.15075,2.83106 -9.38376,3.7311 -15.31214,2.21106 -1.20805,-0.30973 -1.31043,-0.3967 -2.86885,-2.43652 -1.37032,-1.79367 -1.79247,-2.19084 -2.77616,-2.6119 -1.10228,-0.47183 -1.19979,-0.48023 -1.95662,-0.16863 -0.9999,0.41167 -1.93596,1.45968 -2.57336,2.88105 -1.16491,2.59774 -1.15104,2.21748 -1.15133,31.51643 v 27.51434 h 5.74404 c 8.89263,0 12.69285,0.5901 14.15817,2.19845 0.27655,0.30354 0.50281,0.76938 0.50281,1.0352 0,0.69392 -1.42809,1.83304 -3.34047,2.66454 -1.7719,0.77042 -1.8474,0.85563 -2.07598,2.34331 -0.35582,2.3159 1.10573,4.1376 3.98927,4.97227 1.86236,0.53908 4.60414,0.60366 6.33903,0.1493 z m -226.41778,-0.89529 c 1.77537,-0.50569 2.43956,-0.90411 3.23275,-1.93919 0.55794,-0.72808 0.65729,-1.07104 0.64402,-2.22306 -0.009,-0.74919 -0.14773,-1.57245 -0.30911,-1.82946 -0.16138,-0.25702 -0.96452,-0.75654 -1.78475,-1.11005 -1.99524,-0.85993 -2.81166,-1.54327 -2.81166,-2.35333 0,-0.89974 0.51563,-1.43481 1.86605,-1.93638 2.44259,-0.90723 3.33696,-0.94747 23.70023,-1.06638 l 19.44478,-0.11355 v -13.67945 c 0,-15.07355 -0.0285,-15.43064 -1.46796,-18.41055 -0.43098,-0.89218 -1.06303,-1.93844 -1.40455,-2.32504 -0.7375,-0.83482 -2.0839,-1.249 -3.37853,-1.0393 -1.17033,0.18956 -3.00906,1.7739 -4.44119,3.82675 -1.03572,1.48462 -1.11766,1.5475 -2.51101,1.92682 -7.14815,1.94598 -14.44515,0.0671 -17.03872,-4.38719 -2.91301,-5.00294 -1.38452,-10.99363 3.49476,-13.69716 3.41146,-1.89024 9.07368,-2.29508 13.59181,-0.97181 1.55063,0.45414 1.60582,0.49564 2.51588,1.89148 1.15617,1.77332 3.19186,3.54411 4.40741,3.83389 1.83974,0.43858 3.66491,-0.94739 4.90564,-3.72519 1.47107,-3.29351 1.44649,-2.78265 1.44649,-30.06185 V 85.69434 h -38.04935 -38.04935 v 50.86689 50.86688 l 10.86267,0.0897 c 9.19823,0.0759 11.13731,0.14473 12.65506,0.44893 2.82761,0.56672 3.92902,1.2404 3.92902,2.40321 0,0.8394 -0.94027,1.64922 -2.84671,2.45178 -0.8443,0.35543 -1.6674,0.85696 -1.82911,1.11451 -0.16172,0.25755 -0.30109,1.08125 -0.30972,1.83044 -0.0133,1.15202 0.0861,1.49498 0.64402,2.22306 0.36284,0.47349 0.93844,1.01858 1.27912,1.2113 1.91395,1.08275 5.24713,1.40148 7.61201,0.72789 z m 154.83611,-1.69733 c 1.846,-0.45161 3.29425,-2.07329 3.29425,-3.68874 0,-1.41891 -0.31367,-1.8096 -2.01601,-2.51106 -1.57505,-0.64901 -2.54511,-1.50051 -2.54511,-2.23405 0,-0.48857 0.83478,-1.18989 1.80044,-1.51259 2.24104,-0.74892 4.40177,-0.82167 24.426,-0.82248 l 19.62482,-7.9e-4 0.004,-26.99618 c 0.005,-29.38952 -0.0194,-28.8228 1.36419,-32.18273 0.37667,-0.91468 0.98774,-2.00589 1.35794,-2.42492 0.77556,-0.87791 2.35949,-1.6118 3.47867,-1.6118 1.80925,0 3.81984,1.32809 5.43786,3.59198 0.52813,0.73894 1.24565,1.4915 1.5945,1.67235 0.34883,0.18085 1.6957,0.48365 2.99303,0.67289 2.88909,0.42143 5.44173,0.19796 7.90882,-0.69236 5.13954,-1.85475 6.95042,-7.54068 3.8818,-12.18822 -0.68885,-1.0433 -3.06954,-2.61211 -4.89752,-3.22734 -1.14921,-0.38679 -1.88969,-0.4735 -4.15883,-0.487 -1.57063,-0.009 -3.42012,0.10979 -4.29043,0.27637 -1.49247,0.28565 -1.55685,0.32605 -2.64065,1.65669 -1.96874,2.41713 -3.36524,3.54412 -4.78593,3.8623 -1.08043,0.24197 -1.39698,0.23819 -2.26779,-0.0271 -1.78203,-0.54285 -2.67673,-1.51119 -3.71703,-4.02296 -1.16229,-2.80632 -1.26083,-4.16191 -1.26187,-17.35839 l -8.4e-4,-12.28042 h -38.04927 -38.04934 v 9.84427 c 0,8.0752 0.0689,10.18962 0.38313,11.76225 0.21072,1.05451 0.43235,1.98612 0.4925,2.07025 0.0602,0.0841 0.26468,0.66776 0.45449,1.29695 0.43273,1.4344 1.99804,3.58428 3.05658,4.19805 1.08893,0.63139 2.5456,0.61841 3.74143,-0.0334 1.21823,-0.66398 3.22623,-2.766 4.31501,-4.51706 l 0.88013,-1.4155 1.92047,-0.49164 c 4.97606,-1.2739 10.1896,-1.19193 13.80339,0.217 2.50309,0.9759 3.13702,1.33348 4.61877,2.6053 3.86838,3.32032 4.87055,9.04092 2.42338,13.83312 -1.37621,2.69497 -4.11883,4.7193 -7.97412,5.88568 -3.60695,1.09126 -9.27897,1.00063 -13.45979,-0.21507 -0.71019,-0.2065 -1.37974,-0.51537 -1.48789,-0.68636 -1.92487,-3.04341 -3.88281,-5.09742 -5.56549,-5.83859 -2.44679,-1.07773 -4.9633,0.74031 -6.313,4.56079 -1.30777,3.70178 -1.28709,3.18824 -1.28808,31.99031 l -9.1e-4,26.67085 11.34278,0.088 c 12.13423,0.0941 13.73384,0.21931 15.32838,1.19961 1.54079,0.94726 1.09471,2.02721 -1.31867,3.19248 -1.84761,0.89208 -1.96638,1.00703 -2.17619,2.1061 -0.30462,1.59566 0.57159,3.25846 2.06943,3.9272 1.56255,0.69765 4.10912,0.81351 6.26857,0.28521 z m -92.4892,-11.05511 c 2.70835,-0.49301 4.56103,-1.38685 4.56103,-2.20049 0,-0.53565 -1.17953,-1.37192 -2.93251,-2.07912 -1.78958,-0.72197 -2.13795,-1.12627 -2.58983,-3.0056 -0.66661,-2.77242 1.13511,-5.49829 4.32617,-6.54516 4.0617,-1.33249 9.01128,-0.7508 11.74311,1.38008 1.53735,1.19917 1.801,1.77223 1.80909,3.9323 0.0103,2.76502 -0.33584,3.30371 -2.76444,4.30151 -2.02442,0.83175 -2.77133,1.49851 -2.54619,2.273 0.138,0.47472 1.21347,1.15381 2.3169,1.46297 2.65383,0.74356 3.32755,0.76454 24.54595,0.76454 h 20.8252 l 0.005,-26.16713 c 0.005,-27.27635 0.0435,-28.45662 1.03629,-31.65963 1.03354,-3.33455 2.65237,-5.61099 4.55589,-6.40658 1.23422,-0.51586 3.15967,-0.57063 4.39491,-0.12502 1.23342,0.44495 3.94491,2.88808 4.97032,4.47842 0.48467,0.75167 1.07841,1.52077 1.31944,1.7091 1.27564,0.99672 7.25803,1.61637 10.58397,1.09627 3.39048,-0.53019 5.15227,-1.25788 7.04827,-2.9112 1.78426,-1.55587 2.09914,-1.98546 2.96361,-4.04321 0.82929,-1.974 0.82404,-5.52079 -0.0113,-7.64132 -1.78594,-4.53359 -6.50857,-7.08952 -13.10021,-7.08995 -1.74636,-1.2e-4 -3.09916,0.16175 -6.48159,0.77557 -0.85049,0.15434 -1.07923,0.35194 -1.94055,1.67643 -1.06557,1.63858 -2.90499,3.59225 -3.99777,4.2461 -2.52695,1.51194 -4.8768,1.45925 -6.95578,-0.15599 -1.30876,-1.01682 -2.65977,-3.25455 -3.40645,-5.64222 -0.77839,-2.48911 -0.9837,-5.56162 -0.9837,-14.72182 V 85.6937 h -38.04935 -38.04935 v 24.97759 c 0,28.42739 0.0252,27.99604 -1.83046,31.30614 -2.47229,4.40997 -6.99687,4.7686 -10.32582,0.81845 -0.64184,-0.76161 -1.49107,-1.76376 -1.88717,-2.22699 -1.01425,-1.18615 -2.08941,-1.44039 -6.24153,-1.47588 -3.91112,-0.0334 -4.77822,0.14422 -7.11125,1.45701 -2.71308,1.52663 -3.92018,3.50449 -4.21626,6.90847 -0.38524,4.42889 2.12804,7.89077 6.72153,9.25849 2.2886,0.68143 8.9698,0.40139 10.21806,-0.42829 0.18193,-0.12093 0.96326,-1.03199 1.73628,-2.02458 0.77302,-0.99259 1.76152,-2.03917 2.19666,-2.32573 1.04434,-0.68774 2.78916,-1.36098 3.53819,-1.36522 2.04543,-0.0116 4.26229,1.51283 5.46639,3.7589 0.67428,1.25776 0.85316,1.82054 1.49127,4.69162 0.14996,0.67472 0.24411,6.31718 0.24411,14.62941 0,7.44209 0.072,13.59325 0.16004,13.66924 0.32569,0.2812 15.00483,0.15257 16.64418,-0.14585 z"
       id="path4993"
       inkscape:connector-curvature="0"
       sodipodi:nodetypes="cccccccccccsccccscccccccscccccccccccccccccccccccccsccscccccsssssscccsccscccscscsccccccccsccccsccsccccccccccsscccccccccscccccsccscccccscssccccccccccccsccccccscccscsccscscscccsccccccscccccccccccscsscccccsccccccccscccccccscsscscccccccscscsccccscccsccscccccccsccccccccssscsccccsccssccccscccccccscccscccccsccccccscccccccccsccccccccscccccccscccccccccscccscsccccccscccssccc" />
  </g>
</svg>
